<svg id="Layer_1" xmlns="http://www.w3.org/2000/svg" viewBox="0 0 90 71.6"><style>.st0{fill:#fff}</style><path class="st0" d="M73.9 49L66 41.1l5.9-2.8c.4-.2.6-.6.6-1.1 0-.4-.3-.8-.7-1l-9.6-3.3V13.7h2.4c.6 0 1.1-.5 1.1-1.1 0-.6-.5-1.1-1.1-1.1h-2.4V1.1c0-.6-.5-1.1-1.1-1.1h-46c-.6 0-1.1.5-1.1 1.1v10.4h-2.5c-.6 0-1.1.5-1.1 1.1 0 .6.5 1.1 1.1 1.1H14v25.9c0 .6.5 1.1 1.1 1.1h37L56 51.9c.1.4.5.7 1 .7.4 0 .9-.2 1.1-.6l2.8-5.9 7.9 7.9c.2.2.5.3.8.3h.4c.1-.1.3-.1.4-.2l3.6-3.6c.2-.2.3-.5.3-.8-.1-.3-.2-.5-.4-.7zM16.2 2.2H60v22.3L48.7 13.2c-.4-.4-1.1-.4-1.6 0L31.9 28.5l-5.1-5.1c-.4-.4-1.1-.4-1.6 0l-9 9V2.2zm0 36.3v-3l9.8-9.7 5.1 5.1c.4.4 1.1.4 1.5 0l15.3-15.3 12.1 12v4.5l-10-3.4c-.4-.1-.9 0-1.2.3-.3.3-.4.7-.3 1.1l2.9 8.3H16.2zm53.4 13.2l-8.2-8.2c-.3-.3-.6-.4-1-.3-.4.1-.6.3-.8.6l-2.4 4.9-3.2-9.5v-.1l-2.6-7.7 17.2 5.9-4.9 2.4c-.3.2-.5.5-.6.8-.1.4.1.7.3 1l8.2 8.2-2 2z"/><path class="st0" d="M70.3 54.1c-.1.1-.2.2-.4.2.2 0 .3-.1.4-.2zM78.6 13.7h-7c-.6 0-1.1-.5-1.1-1.1s.5-1.1 1.1-1.1h7c.6 0 1.1.5 1.1 1.1s-.5 1.1-1.1 1.1zM88.9 17c-.6 0-1.1-.5-1.1-1.1v-2.2h-2.2c-.6 0-1.1-.5-1.1-1.1s.5-1.1 1.1-1.1h3.3c.6 0 1.1.5 1.1 1.1v3.3c0 .6-.5 1.1-1.1 1.1zM88.9 60.9c-.6 0-1.1-.5-1.1-1.1v-7.3c0-.6.5-1.1 1.1-1.1s1.1.5 1.1 1.1v7.3c0 .6-.5 1.1-1.1 1.1zm0-14.6c-.6 0-1.1-.5-1.1-1.1v-7.3c0-.6.5-1.1 1.1-1.1s1.1.5 1.1 1.1v7.3c0 .6-.5 1.1-1.1 1.1zm0-14.7c-.6 0-1.1-.5-1.1-1.1v-7.3c0-.6.5-1.1 1.1-1.1s1.1.5 1.1 1.1v7.3c0 .6-.5 1.1-1.1 1.1zM88.9 71.6h-3.3c-.6 0-1.1-.5-1.1-1.1s.5-1.1 1.1-1.1h2.2v-2.2c0-.6.5-1.1 1.1-1.1s1.1.5 1.1 1.1v3.3c0 .6-.5 1.1-1.1 1.1zM79.4 71.6h-6.2c-.6 0-1.1-.5-1.1-1.1s.5-1.1 1.1-1.1h6.2c.6 0 1.1.5 1.1 1.1s-.5 1.1-1.1 1.1zm-12.5 0h-6.2c-.6 0-1.1-.5-1.1-1.1s.5-1.1 1.1-1.1h6.2c.6 0 1.1.5 1.1 1.1s-.5 1.1-1.1 1.1zm-12.5 0h-6.2c-.6 0-1.1-.5-1.1-1.1s.5-1.1 1.1-1.1h6.2c.6 0 1.1.5 1.1 1.1 0 .6-.5 1.1-1.1 1.1zm-12.5 0h-6.2c-.6 0-1.1-.5-1.1-1.1s.5-1.1 1.1-1.1h6.2c.6 0 1.1.5 1.1 1.1s-.5 1.1-1.1 1.1zm-12.5 0h-6.2c-.6 0-1.1-.5-1.1-1.1s.5-1.1 1.1-1.1h6.2c.6 0 1.1.5 1.1 1.1s-.5 1.1-1.1 1.1zm-12.5 0h-6.2c-.6 0-1.1-.5-1.1-1.1s.5-1.1 1.1-1.1h6.2c.6 0 1.1.5 1.1 1.1 0 .6-.5 1.1-1.1 1.1zM4.4 71.6H1.1c-.6 0-1.1-.5-1.1-1.1v-3.3c0-.6.5-1.1 1.1-1.1s1.1.5 1.1 1.1v2.2h2.2c.6 0 1.1.5 1.1 1.1s-.5 1.1-1.1 1.1zM1.1 60.9c-.6 0-1.1-.5-1.1-1.1v-7.3c0-.6.5-1.1 1.1-1.1s1.1.5 1.1 1.1v7.3c0 .6-.5 1.1-1.1 1.1zm0-14.6c-.6 0-1.1-.5-1.1-1.1v-7.3c0-.6.5-1.1 1.1-1.1s1.1.5 1.1 1.1v7.3c0 .6-.5 1.1-1.1 1.1zm0-14.7c-.6 0-1.1-.5-1.1-1.1v-7.3c0-.6.5-1.1 1.1-1.1s1.1.5 1.1 1.1v7.3c0 .6-.5 1.1-1.1 1.1zM1.1 17C.5 17 0 16.5 0 15.9v-3.3c0-.6.5-1.1 1.1-1.1h3.3c.6 0 1.1.5 1.1 1.1s-.5 1.1-1.1 1.1H2.2v2.2c0 .6-.5 1.1-1.1 1.1z"/><g><path class="st0" d="M28.6 18.7c-3 0-5.4-2.4-5.4-5.4 0-3 2.4-5.4 5.4-5.4s5.4 2.4 5.4 5.4-2.4 5.4-5.4 5.4zm0-8.7c-1.8 0-3.2 1.5-3.2 3.2 0 1.8 1.5 3.2 3.2 3.2 1.8 0 3.2-1.5 3.2-3.2S30.4 10 28.6 10z"/></g></svg>