<svg xmlns="http://www.w3.org/2000/svg" viewBox="0 0 283 38.1"><path class="title" d="M41.8 9.3c-5 0-8.9 4.1-8.9 9.5s3.8 9.6 8.9 9.6c2.9 0 6.3-1.7 8.9-4.3L57 31c-4 4.3-10.1 7.2-15.7 7.2C30 38.1 21.6 30 21.6 19 21.6 8.2 30.1.2 41.6.2 47.2.2 53.2 2.7 57 6.8l-6.4 7.5c-2.3-3-5.7-5-8.8-5zM75 8.6c-1.9 0-3.1.6-3.1 2 0 5.5 19.4 2.2 19.4 15.6 0 7.9-7 11.7-15.3 11.7-6.3 0-13.2-2.2-17.9-5.9l4.1-8.4c3.8 3.2 10 5.7 13.8 5.7 2.3 0 3.8-.8 3.8-2.5 0-5.6-19.4-2.1-19.4-15.2.2-7 6.3-11.6 15.5-11.6 5.7 0 11.5 1.7 15.5 4.3l-4.1 8.5c-3.7-2.2-9.1-4.2-12.3-4.2zM109.5 8.6c-1.9 0-3.1.6-3.1 2 0 5.5 19.4 2.2 19.4 15.6 0 7.9-7 11.7-15.3 11.7-6.3 0-13.2-2.2-17.9-5.9l4.1-8.4c3.8 3.2 10 5.7 13.8 5.7 2.3 0 3.8-.8 3.8-2.5 0-5.6-19.4-2.1-19.4-15.2.1-7 6.2-11.6 15.5-11.6 5.7 0 11.5 1.7 15.5 4.3l-4.1 8.5c-3.7-2.2-9.2-4.2-12.3-4.2zM144.4 18v6.7h-14.5V18h14.5zM175.6 18.4h9.5v15c-4 2.8-10.6 4.8-15.9 4.8-11.5 0-20-8.1-20-19S157.9.3 169.9.3c5.7 0 11.8 2.2 15.7 5.6l-6.3 7.6c-2.5-2.4-6.3-4-9.5-4-5.4 0-9.4 4.2-9.4 9.8 0 5.7 4.1 9.8 9.5 9.8 1.5 0 3.6-.5 5.6-1.4v-9.3zM220.9.5V9h-19.4v5.8H219v8.5h-17.5v5.9h19.9v8.5h-30.9V.5h30.4zM235.3.5L251 21.3V.5h10.1v37.2h-9.4L236 17v20.7h-10.1V.5h9.4z"/><g><path class="bracket" d="M7.5 19.1c3.1.6 4.2 2 4.2 4.9v3.7c0 1.7.7 2.3 3.9 2.3v5.7H12c-6.3 0-8.5-1.4-8.5-5.6v-6.6C3.4 22.3 3 22 1.9 22H0v-5.8h1.9c1.1 0 1.5-.4 1.5-1.5V8.1c0-4.1 2.2-5.6 8.5-5.6h3.6v5.7c-3.1 0-3.9.6-3.9 2.3v3.7c.1 2.9-1 4.3-4.1 4.9z"/></g><g><path class="bracket" d="M283 16.2V22h-1.6c-.9 0-1.3.3-1.3 1.4V30c0 4.2-1.8 5.6-7 5.6h-3v-5.7c2.6 0 3.2-.6 3.2-2.3v-3.7c0-2.9.9-4.3 3.5-4.9-2.5-.6-3.5-1.9-3.5-4.9v-3.7c0-1.7-.6-2.3-3.2-2.3V2.5h3c5.2 0 7 1.4 7 5.6v6.6c0 1.1.3 1.5 1.3 1.5h1.6z"/></g></svg>