<?xml version="1.0" encoding="utf-8"?>
<!-- Generator: Adobe Illustrator 22.0.1, SVG Export Plug-In . SVG Version: 6.00 Build 0)  -->
<svg version="1.1" id="Layer_1" xmlns="http://www.w3.org/2000/svg" xmlns:xlink="http://www.w3.org/1999/xlink" x="0px" y="0px"
	 viewBox="0 0 29.2 29" style="enable-background:new 0 0 29.2 29;" xml:space="preserve">
<style type="text/css">
	.st0{fill:none;}
	.st1{fill:#C4C4C4;}
	.st2{fill:#4834D4;}
</style>
<g>
	<path class="st0" d="M19,24H7.3c0,1.6,1.3,3,3,3h14c1.7,0,3-1.3,3-3V10c0-1.7-1.3-3-3-3H24v12C24,21.8,21.8,24,19,24z"/>
	<path class="st1" d="M24.2,5H24c0,0,0,0,0,0v2h0.2c1.7,0,3,1.3,3,3v14c0,1.7-1.3,3-3,3h-14c-1.6,0-3-1.3-3-3h-2c0,2.7,2.2,5,5,5h14
		c2.8,0,5-2.2,5-5V10C29.2,7.2,27,5,24.2,5z"/>
	<path class="st2" d="M19,24c2.8,0,5-2.2,5-5V7V5c0,0,0,0,0,0c0-2.7-2.2-5-5-5H5C2.2,0,0,2.2,0,5v14c0,2.8,2.2,5,5,5h0.3h2H19z
		 M2,19V5c0-1.7,1.3-3,3-3h14c1.6,0,3,1.3,3,3c0,0,0,0,0,0v2v12c0,1.7-1.3,3-3,3H7.2h-2H5C3.3,22,2,20.7,2,19z"/>
</g>
</svg>
